<svg width="180" height="180" viewBox="0 0 180 180" fill="none" xmlns="http://www.w3.org/2000/svg">
<g filter="url(#filter0_i_4549_370)">
<path d="M38.1213 92.5476C36.9497 91.376 36.9497 89.4765 38.1213 88.3049L50.8492 75.577C52.0208 74.4055 53.9203 74.4055 55.0919 75.577L67.8198 88.3049C68.9914 89.4765 68.9914 91.376 67.8198 92.5476L55.0919 105.276C53.9203 106.447 52.0208 106.447 50.8492 105.276L38.1213 92.5476Z" fill="#4F4F4F"/>
</g>
<g filter="url(#filter1_i_4549_370)">
<path d="M63.5771 118.004C62.4055 116.832 62.4055 114.933 63.5771 113.761L127.217 50.1214C128.388 48.9498 130.288 48.9498 131.459 50.1214L144.187 62.8493C145.359 64.0209 145.359 65.9204 144.187 67.0919L80.5476 130.732C79.3761 131.903 77.4766 131.903 76.305 130.732L63.5771 118.004Z" fill="#4F4F4F"/>
</g>
<defs>
<filter id="filter0_i_4549_370" x="37.2426" y="74.6982" width="31.4558" height="33.4561" filterUnits="userSpaceOnUse" color-interpolation-filters="sRGB">
<feFlood flood-opacity="0" result="BackgroundImageFix"/>
<feBlend mode="normal" in="SourceGraphic" in2="BackgroundImageFix" result="shape"/>
<feColorMatrix in="SourceAlpha" type="matrix" values="0 0 0 0 0 0 0 0 0 0 0 0 0 0 0 0 0 0 127 0" result="hardAlpha"/>
<feOffset dy="4"/>
<feGaussianBlur stdDeviation="1"/>
<feComposite in2="hardAlpha" operator="arithmetic" k2="-1" k3="1"/>
<feColorMatrix type="matrix" values="0 0 0 0 0 0 0 0 0 0 0 0 0 0 0 0 0 0 0.25 0"/>
<feBlend mode="normal" in2="shape" result="effect1_innerShadow_4549_370"/>
</filter>
<filter id="filter1_i_4549_370" x="62.6984" y="49.2427" width="82.3675" height="84.3677" filterUnits="userSpaceOnUse" color-interpolation-filters="sRGB">
<feFlood flood-opacity="0" result="BackgroundImageFix"/>
<feBlend mode="normal" in="SourceGraphic" in2="BackgroundImageFix" result="shape"/>
<feColorMatrix in="SourceAlpha" type="matrix" values="0 0 0 0 0 0 0 0 0 0 0 0 0 0 0 0 0 0 127 0" result="hardAlpha"/>
<feOffset dy="4"/>
<feGaussianBlur stdDeviation="1"/>
<feComposite in2="hardAlpha" operator="arithmetic" k2="-1" k3="1"/>
<feColorMatrix type="matrix" values="0 0 0 0 0 0 0 0 0 0 0 0 0 0 0 0 0 0 0.25 0"/>
<feBlend mode="normal" in2="shape" result="effect1_innerShadow_4549_370"/>
</filter>
</defs>
</svg>
